<svg width="10" height="10" viewBox="0 0 10 10" fill="none" xmlns="http://www.w3.org/2000/svg">
<path d="M9.06301 4.7149C9.03269 4.78759 8.96193 4.83502 8.8834 4.83502H6.7534V9.6945C6.7534 9.8018 6.66631 9.88889 6.55901 9.88889H3.44894C3.34164 9.88889 3.25455 9.8018 3.25455 9.6945V4.83501H1.11638C1.03786 4.83501 0.967097 4.78757 0.936774 4.71526C0.906834 4.64257 0.923162 4.55898 0.97876 4.50338L4.85663 0.612682C4.89317 0.576145 4.94255 0.555534 4.99425 0.555534C5.04595 0.555534 5.09534 0.576145 5.13187 0.6123L9.02102 4.503C9.07662 4.55862 9.09333 4.64219 9.06301 4.7149Z" fill="white"/>
</svg>
